<svg id="Layer_1" data-name="Layer 1" xmlns="http://www.w3.org/2000/svg" viewBox="0 0 3055.31 842.38"><defs><style>.cls-1{fill:#f47538;}</style></defs><title>1</title><g id="Layer_8" data-name="Layer 8"><path class="cls-1" d="M1283.24,1355.84l-21.09-22.45L1188.48,1255h0l-60.37,13.91-74.27-79.06-30.6-32.58h0l-73.66-78.42-60.38,13.9-121.28,27.94-19.69,4.54h0c-3.29.76-6.28,1.56-9.13,2.45A238.49,238.49,0,0,0,711.91,1138v-4.45l-60.37,13.91-141,32.49-38.23,8.81v484.9l2.36-.54L711.26,1788v50.84l-.31.12v9.45A35.08,35.08,0,0,0,730.72,1880l84.81,41.19,60.37-13.91,141-32.49,11-2.53a35.1,35.1,0,0,0,27.22-34.2V1668.89l58.45-13.47,141-32.48,11-2.53a35.11,35.11,0,0,0,27.23-34.21V1379.87A35.09,35.09,0,0,0,1283.24,1355.84Zm-534.69-105c-52.67,24-85.94,77.17-85.94,135v193.38l-141,32.48V1228l141-32.48v41.62a189.31,189.31,0,0,1,91.16-62.42c1.82-.57,3.67-1,5.52-1.48l19.69-4.53,121.29-27.94v186.61l-141,32.48V1246.41q-5.44,2-10.72,4.39Zm390.63,252.73-141,32.48V1422.56q-5.48,2-10.74,4.39c-52.67,24-85.94,77.17-85.94,135v193.38l-141,32.48V1404.15l141-32.48v41.62a189.31,189.31,0,0,1,91.16-62.42c1.82-.57,3.66-1,5.52-1.47l19.69-4.54,121.28-27.94Z" transform="translate(-472.31 -1078.85)"/><path class="cls-1" d="M1735,1549.15h-66.31c-3.47-18.12-6.56-38.94-9.64-64-3.47-31.23-13.11-40.48-49.74-40.48h-45.1v104.48h-56.67V1267.71h104.09a348.62,348.62,0,0,1,41.25,1.93c39.71,4.63,74,24.67,74,77.49,0,35.47-18.89,58.6-49.35,70.94,22.75,8.87,35.86,25.83,38.94,54.36,3.09,28.91,5.78,44.72,10.41,64l8.1,10Zm-122.21-152.67c33.15,0,56.28-8.87,56.28-40.1,0-28.52-15.42-40.09-54.36-40.09h-50.5v80.19Z" transform="translate(-472.31 -1078.85)"/><path class="cls-1" d="M1973.63,1317.06H1832.52v66.7h133v47.42h-133v68.62h144.19v49.35H1776.24V1267.71h197.39Z" transform="translate(-472.31 -1078.85)"/><path class="cls-1" d="M2233.85,1317.06H2146v232.09h-56.29V1317.06h-87.9v-49.35H2233.9Z" transform="translate(-472.31 -1078.85)"/><path class="cls-1" d="M2497.16,1549.15h-66.31c-3.47-18.12-6.55-38.94-9.64-64-3.47-31.23-13.11-40.48-49.73-40.48h-45.11v104.48H2269.7V1267.71h104.09a348.62,348.62,0,0,1,41.25,1.93c39.71,4.63,74,24.67,74,77.49,0,35.47-18.9,58.6-49.35,70.94,22.74,8.87,35.85,25.83,38.94,54.36,3.08,28.91,5.78,44.72,10.41,64l8.09,10ZM2375,1396.48c33.15,0,56.29-8.87,56.29-40.1,0-28.52-15.43-40.09-54.36-40.09h-50.51v80.19Z" transform="translate(-472.31 -1078.85)"/><path class="cls-1" d="M2662.16,1262.32c89.82,0,136.09,49.73,136.09,146.11s-46.27,146.12-136.09,146.12-136.1-49.74-136.1-146.12S2572.33,1262.32,2662.16,1262.32Zm0,242.11c48.57,0,78.26-27.37,78.26-96s-29.69-96-78.26-96-77.88,27.38-77.88,96,29.3,96,77.88,96Z" transform="translate(-472.31 -1078.85)"/><path class="cls-1" d="M1735,1915.78h-66.31c-3.47-18.12-6.56-38.94-9.64-64-3.47-31.22-13.11-40.48-49.74-40.48h-45.1v104.48h-56.67V1634.35h104.09a350.75,350.75,0,0,1,41.25,1.92c39.71,4.63,74,24.68,74,77.49,0,35.47-18.89,58.61-49.35,70.94,22.75,8.87,35.86,25.83,38.94,54.36,3.09,28.92,5.78,44.72,10.41,64l8.1,10Zm-122.21-152.67c33.15,0,56.28-8.86,56.28-40.09,0-28.53-15.42-40.1-54.36-40.1h-50.5v80.19Z" transform="translate(-472.31 -1078.85)"/><path class="cls-1" d="M1900,1629c89.83,0,136.09,49.73,136.09,146.11s-46.26,146.12-136.09,146.12-136.09-49.73-136.09-146.12S1810.16,1629,1900,1629Zm0,242.11c48.58,0,78.26-27.37,78.26-96s-29.68-96-78.26-96-77.88,27.37-77.88,96,29.29,96,77.88,96Z" transform="translate(-472.31 -1078.85)"/><path class="cls-1" d="M2135.54,1866.43h134.55v49.35H2079.26V1634.35h56.28Z" transform="translate(-472.31 -1078.85)"/><path class="cls-1" d="M2503.72,1683.69H2362.61v66.7h133v47.42h-133v68.62H2506.8v49.35H2306.33V1634.35h197.39Z" transform="translate(-472.31 -1078.85)"/><path class="cls-1" d="M2691.46,1636.27c37.79,4.63,77.11,26.22,77.11,84.82,0,62.84-39.32,86.74-77.11,91.37a348.62,348.62,0,0,1-41.25,1.93h-45.1v101.39h-56.29V1634.35h101.39A350.75,350.75,0,0,1,2691.46,1636.27ZM2651.37,1765c34.31,0,59-5.4,59-40.87,0-34.69-26.21-40.48-59-40.48h-46.26V1765Z" transform="translate(-472.31 -1078.85)"/><path class="cls-1" d="M2859.16,1866.43h134.55v49.35H2802.88V1634.35h56.28Z" transform="translate(-472.31 -1078.85)"/><path class="cls-1" d="M3291,1915.78h-59.76l-23.52-67.85H3104l-23.9,67.85h-59l101.39-281.43h69Zm-96-115.66-38.17-113-39.32,113Z" transform="translate(-472.31 -1078.85)"/><path class="cls-1" d="M3419.33,1805.52v110.26H3363V1805.52l-108.33-171.17h66.69l71.32,118.74,69.79-118.74h65.15Z" transform="translate(-472.31 -1078.85)"/></g></svg>